<?xml version="1.0" standalone="no"?>
<!DOCTYPE svg PUBLIC "-//W3C//DTD SVG 20010904//EN"
 "http://www.w3.org/TR/2001/REC-SVG-20010904/DTD/svg10.dtd">
<svg version="1.0" xmlns="http://www.w3.org/2000/svg"
 width="1024.000000pt" height="1024.000000pt" viewBox="0 0 1024.000000 1024.000000"
 preserveAspectRatio="xMidYMid meet">

<g transform="translate(0.000000,1024.000000) scale(0.100000,-0.100000)"
fill="#000000" stroke="none">
<path d="M4900 8313 c-906 -66 -1715 -492 -2283 -1203 -463 -580 -699 -1257
-698 -2002 0 -414 67 -766 216 -1149 158 -406 378 -747 685 -1062 480 -494
1067 -810 1730 -931 925 -168 1866 75 2605 673 152 122 404 383 518 535 41 54
47 97 23 145 -21 40 -59 61 -110 61 -35 0 -54 -7 -89 -34 l-44 -34 -36 47
c-50 67 -261 365 -422 596 -76 110 -166 238 -200 285 -34 47 -89 127 -124 177
-53 78 -69 95 -101 104 -65 20 -97 1 -160 -91 -30 -45 -59 -85 -66 -91 -12
-10 -91 96 -360 484 -60 87 -153 222 -207 300 -54 78 -131 190 -170 249 -91
135 -130 159 -202 126 -26 -12 -58 -57 -521 -735 -109 -161 -202 -292 -205
-293 -4 0 -39 50 -79 111 -41 60 -87 121 -103 135 -36 31 -84 31 -126 2 -17
-13 -110 -138 -209 -283 -336 -495 -477 -694 -487 -692 -24 6 -172 246 -249
402 -173 349 -249 629 -277 1021 -44 612 156 1255 549 1764 152 197 435 449
667 595 215 136 566 280 815 335 354 78 691 76 1075 -6 75 -16 82 -16 116 0
90 42 92 168 4 210 -174 83 -531 183 -780 220 -216 32 -496 44 -695 29z m100
-241 c0 -5 -37 -19 -82 -31 -180 -48 -475 -183 -675 -308 -449 -282 -801 -667
-1039 -1138 -382 -758 -402 -1633 -55 -2440 127 -295 327 -588 571 -839 159
-164 289 -273 465 -391 669 -449 1507 -600 2272 -409 57 15 106 24 109 21 8
-8 -222 -121 -346 -170 -339 -133 -642 -194 -1006 -204 -475 -13 -866 64
-1294 254 -900 398 -1552 1232 -1714 2193 -81 478 -50 958 91 1394 214 665
642 1226 1218 1598 132 85 155 98 283 162 335 167 718 275 1082 305 58 4 108
9 113 10 4 0 7 -3 7 -7z m561 -3017 c45 -66 126 -183 179 -260 376 -546 514
-742 532 -757 22 -20 88 -24 118 -8 10 6 47 51 81 100 34 50 65 90 68 90 3 -1
42 -53 87 -118 44 -64 209 -301 367 -525 158 -225 287 -411 287 -412 0 -8
-129 -95 -215 -146 -249 -146 -553 -256 -856 -309 -160 -28 -514 -39 -680 -21
-326 36 -609 117 -904 261 -253 124 -461 271 -674 476 l-130 126 61 91 c34 51
132 193 218 317 86 124 194 280 240 348 46 67 87 121 91 120 5 -2 55 -69 111
-149 339 -482 405 -573 426 -587 27 -18 93 -18 121 0 47 29 58 110 22 159 -65
88 -291 413 -291 419 0 6 206 313 381 568 l84 123 5 -308 5 -307 78 100 78
100 -1 248 c-1 253 7 404 20 389 4 -4 45 -62 91 -128z"/>
<path d="M4010 5753 c0 -676 4 -1234 9 -1242 6 -9 59 53 189 225 l181 239 0
715 1 715 355 -355 355 -355 355 355 355 355 0 -547 0 -548 137 -187 c137
-190 219 -300 235 -317 4 -6 8 481 8 1082 l0 1092 -163 0 -163 0 -382 -382
-382 -383 -382 383 -383 382 -163 0 -162 0 0 -1227z"/>
<path d="M6550 5872 l0 -1110 43 -48 c24 -27 107 -125 185 -217 l142 -168 0
506 0 505 243 0 c281 0 380 9 491 46 121 40 210 95 302 189 87 89 147 192 179
310 26 92 32 356 11 467 -32 167 -105 306 -224 420 -82 79 -167 130 -287 171
l-90 32 -497 3 -498 3 0 -1109z m1002 710 c118 -47 210 -164 239 -301 17 -83
6 -252 -21 -324 -30 -79 -111 -166 -187 -200 -86 -39 -153 -46 -418 -44 l-240
2 -3 448 -2 448 287 -3 c273 -3 291 -5 345 -26z"/>
</g>
</svg>
